<?xml version="1.0" standalone="no"?>
<!DOCTYPE svg PUBLIC "-//W3C//DTD SVG 20010904//EN"
 "http://www.w3.org/TR/2001/REC-SVG-20010904/DTD/svg10.dtd">
<svg version="1.0" xmlns="http://www.w3.org/2000/svg"
 width="700.000000pt" height="700.000000pt" viewBox="0 0 700.000000 700.000000"
 preserveAspectRatio="xMidYMid meet">
<metadata>
Created by potrace 1.14, written by Peter Selinger 2001-2017
</metadata>
<g transform="translate(0.000000,700.000000) scale(0.100000,-0.100000)"
fill="#000000" stroke="none">
<path d="M3458 6088 c-19 -18 -73 -67 -119 -108 -46 -41 -86 -77 -89 -80 -3
-3 -45 -41 -95 -85 -49 -44 -99 -89 -111 -100 -11 -11 -54 -49 -94 -85 -40
-36 -78 -70 -84 -75 -8 -8 -473 -426 -533 -480 -6 -5 -48 -44 -93 -85 -45 -41
-96 -86 -113 -100 -16 -14 -46 -41 -66 -60 -21 -19 -73 -66 -116 -105 -43 -38
-83 -75 -89 -80 -6 -6 -76 -69 -156 -140 -80 -71 -163 -146 -185 -166 -51 -46
-164 -148 -236 -213 -30 -28 -73 -67 -95 -86 -146 -131 -341 -306 -350 -315
-6 -5 -41 -37 -79 -70 -37 -33 -91 -81 -119 -107 l-51 -47 437 -1 436 0 1
-1127 c0 -621 0 -1146 1 -1168 l0 -40 2040 0 2040 0 0 105 c1 58 1 583 1 1168
l1 1062 436 0 437 0 -35 33 c-19 17 -82 74 -140 126 -58 52 -141 127 -185 167
-44 40 -91 82 -105 94 -14 12 -43 38 -65 58 -22 20 -83 75 -135 122 -52 47
-100 90 -106 95 -6 6 -48 44 -94 85 -46 41 -109 98 -139 126 -31 28 -74 66
-95 85 -22 19 -52 45 -66 59 -32 30 -48 45 -300 270 -107 96 -217 195 -244
220 -27 25 -54 50 -60 55 -112 99 -197 176 -222 200 -18 16 -54 49 -80 72 -27
23 -63 55 -80 70 -71 65 -697 628 -726 654 -18 16 -35 29 -39 29 -3 0 -21 -15
-41 -32z m162 -1650 c8 -3 31 -8 50 -12 57 -14 171 -70 225 -111 57 -44 117
-108 158 -169 33 -50 82 -174 93 -236 38 -226 -38 -451 -206 -603 -283 -255
-712 -220 -953 78 -165 205 -188 501 -56 732 120 209 344 335 584 327 50 -1
97 -4 105 -6z m53 -1823 c43 -3 86 -8 95 -10 9 -1 58 -10 107 -19 365 -67 682
-206 823 -361 53 -58 98 -138 107 -191 4 -28 9 -203 6 -261 l-1 -23 -1312 0
-1313 0 2 127 c4 198 26 258 137 368 186 184 628 343 1036 371 52 4 96 8 97 9
5 3 136 -3 216 -10z"/>
</g>
</svg>
